<?xml version="1.0" encoding="UTF-8" standalone="no"?>
<svg
   xmlns:dc="http://purl.org/dc/elements/1.1/"
   xmlns:cc="http://creativecommons.org/ns#"
   xmlns:rdf="http://www.w3.org/1999/02/22-rdf-syntax-ns#"
   xmlns:svg="http://www.w3.org/2000/svg"
   xmlns="http://www.w3.org/2000/svg"
   xmlns:xlink="http://www.w3.org/1999/xlink"
   xmlns:sodipodi="http://sodipodi.sourceforge.net/DTD/sodipodi-0.dtd"
   xmlns:inkscape="http://www.inkscape.org/namespaces/inkscape"
   width="100%"
   viewBox="0 0 228.55793 77.991066"
   version="1.1"
   id="svg8"
   inkscape:version="1.0.2 (e86c8708, 2021-01-15)"
   sodipodi:docname="twitter-cli-paths.svg">
  <defs
     id="defs2">
    <linearGradient
       inkscape:collect="always"
       id="linearGradient979">
      <stop
         style="stop-color:#ec43f7;stop-opacity:1;"
         offset="0"
         id="stop975" />
      <stop
         style="stop-color:#d86c00;stop-opacity:0.98538011"
         offset="1"
         id="stop977" />
    </linearGradient>
    <linearGradient
       inkscape:collect="always"
       id="linearGradient971">
      <stop
         style="stop-color:#004fe6;stop-opacity:1;"
         offset="0"
         id="stop967" />
      <stop
         style="stop-color:#ac00e6;stop-opacity:0.90643275"
         offset="1"
         id="stop969" />
    </linearGradient>
    <linearGradient
       inkscape:collect="always"
       id="linearGradient919">
      <stop
         style="stop-color:#2e67ff;stop-opacity:1"
         offset="0"
         id="stop915" />
      <stop
         style="stop-color:#ffc464;stop-opacity:0.86666667"
         offset="0.36098653"
         id="stop923" />
      <stop
         style="stop-color:#3200d6;stop-opacity:0.79824561"
         offset="0.66152465"
         id="stop925" />
      <stop
         style="stop-color:#d661ff;stop-opacity:0.73607039"
         offset="1"
         id="stop917" />
    </linearGradient>
    <linearGradient
       inkscape:collect="always"
       xlink:href="#linearGradient919"
       id="linearGradient921"
       x1="36.227825"
       y1="105.49676"
       x2="185.83531"
       y2="105.49676"
       gradientUnits="userSpaceOnUse"
       gradientTransform="matrix(1.1928252,0,0,4.8572131,-25.43499,-477.53442)" />
    <linearGradient
       inkscape:collect="always"
       xlink:href="#linearGradient971"
       id="linearGradient973"
       x1="33.208839"
       y1="86.376518"
       x2="149.60751"
       y2="86.376518"
       gradientUnits="userSpaceOnUse"
       gradientTransform="matrix(1,0,4.0285628e-8,1.5068852,87.843329,0)" />
    <linearGradient
       inkscape:collect="always"
       xlink:href="#linearGradient979"
       id="linearGradient981"
       x1="70.997223"
       y1="69.101219"
       x2="169.56635"
       y2="69.101219"
       gradientUnits="userSpaceOnUse"
       gradientTransform="matrix(1.0136125,0,0,1.3358385,49.369732,0)" />
    <filter
       y="-0.25"
       height="1.5"
       inkscape:menu-tooltip="Darkens the edge with an inner blur and adds a flexible glow"
       inkscape:menu="Shadows and Glows"
       inkscape:label="Dark and Glow"
       style="color-interpolation-filters:sRGB"
       id="filter1173">
      <feGaussianBlur
         stdDeviation="5"
         result="result6"
         id="feGaussianBlur1163" />
      <feComposite
         result="result8"
         in="SourceGraphic"
         operator="atop"
         in2="result6"
         id="feComposite1165" />
      <feComposite
         result="result9"
         operator="over"
         in2="SourceAlpha"
         in="result8"
         id="feComposite1167" />
      <feColorMatrix
         values="1 0 0 0 0 0 1 0 0 0 0 0 1 0 0 0 0 0 1 0 "
         result="result10"
         id="feColorMatrix1169" />
      <feBlend
         in="result10"
         mode="normal"
         in2="result6"
         id="feBlend1171" />
    </filter>
  </defs>
  <sodipodi:namedview
     id="base"
     borderopacity="1.0"
     inkscape:pageopacity="0.0"
     inkscape:pageshadow="2"
     inkscape:zoom="1.1889073"
     inkscape:cx="389.8541"
     inkscape:cy="111.35295"
     inkscape:document-units="mm"
     inkscape:current-layer="layer2"
     inkscape:document-rotation="0"
     showgrid="false"
     fit-margin-top="0"
     fit-margin-left="0"
     fit-margin-right="0"
     fit-margin-bottom="0"
     inkscape:window-width="1741"
     inkscape:window-height="1174"
     inkscape:window-x="0"
     inkscape:window-y="25"
     inkscape:window-maximized="0" />
  <metadata
     id="metadata5">
    <rdf:RDF>
      <cc:Work
         rdf:about="">
        <dc:format>image/svg+xml</dc:format>
        <dc:type
           rdf:resource="http://purl.org/dc/dcmitype/StillImage" />
        <dc:title></dc:title>
      </cc:Work>
    </rdf:RDF>
  </metadata>
  <g
     inkscape:groupmode="layer"
     id="layer2"
     inkscape:label="Layer 2"
     style="display:inline"
     transform="translate(15.956283,-9.2240562)">
    <rect
       style="fill:url(#linearGradient921);fill-opacity:1;fill-rule:nonzero;stroke:none;stroke-width:2.54743;filter:url(#filter1173)"
       id="rect60"
       width="178.45555"
       height="34.21566"
       x="17.778471"
       y="17.777971"
       ry="0"
       transform="matrix(0.91140891,0,-0.6504379,1,23.487278,0)" />
  </g>
  <g
     inkscape:label="Layer 1"
     inkscape:groupmode="layer"
     id="layer1"
     transform="translate(15.956283,-9.2240562)">
    <g
       aria-label="TWITTIER"
       id="text12"
       style="fill:#ffffff;fill-opacity:1;stroke:none;stroke-width:0.716608">
      <path
         d="m 36.318718,24.871941 h 11.085023 q 0.02799,0 0.02799,0.02799 v 3.709004 q 0,0.02799 -0.02799,0.02799 H 36.318718 q -0.02799,0 -0.02799,-0.02799 v -3.709004 q 0,-0.02799 0.02799,-0.02799 z m 3.583038,8.033842 h 3.83497 q 0.02799,0 0.02799,0.014 v 12.078756 q 0,0.02799 -0.02799,0.02799 h -3.83497 q -0.02799,0 -0.02799,-0.02799 v -12.07876 q 0,-0.014 0.02799,-0.014 z"
         style="stroke-width:0.716608"
         id="path2116" />
      <path
         d="m 50.007042,24.91393 h 3.667015 q 0.02799,0 0.167955,0.895759 0.44788,2.575308 0.44788,2.701274 h -3.667015 q -0.04199,0 -0.153959,-0.867767 -0.307917,-1.707541 -0.461876,-2.729266 z m 13.47838,0 q 0.04199,0 0.7418,2.183413 0.629831,1.875496 3.499061,10.497181 h 0.014 q 0.08398,-0.573846 2.183413,-12.666598 l 0.02799,-0.014 h 3.681011 l 0.02799,0.014 q -2.617297,15.213913 -2.86923,16.571549 l -0.601838,3.513056 -0.02799,0.014 h -3.709004 q -0.02799,0 -1.161688,-3.49906 -3.219136,-9.657406 -3.485064,-10.511177 -0.02799,0 -1.035722,3.051181 l -3.695008,10.959056 h -3.667015 q -0.04199,0 -0.265928,-1.52559 -0.05598,-0.22394 -1.819511,-10.735116 l 0.02799,-0.014 H 55.0037 q 0.04199,0 0.251932,1.427617 0.44788,2.519323 0.587842,3.401086 h 0.02799 L 59.72043,26.089615 q 0.08398,-0.195948 0.405891,-1.175684 z"
         style="stroke-width:0.716608"
         id="path2118" />
      <path
         d="m 76.963799,24.969915 h 11.029037 q 0.02799,0 0.02799,0.02799 v 3.639023 q 0,0.02799 -0.02799,0.02799 H 76.963799 q -0.02799,0 -0.02799,-0.02799 v -3.639023 q 0,-0.02799 0.02799,-0.02799 z m 3.639022,7.921872 h 3.736997 q 0.02799,0 0.02799,0.02799 v 8.411741 h 3.625026 q 0.02799,0 0.02799,0.02799 v 3.639023 q 0,0.02799 -0.02799,0.02799 H 76.963799 q -0.02799,0 -0.02799,-0.02799 v -3.639023 q 0,-0.02799 0.02799,-0.02799 h 3.61103 v -8.411741 q 0,-0.02799 0.02799,-0.02799 z"
         style="stroke-width:0.716608"
         id="path2120" />
      <path
         d="m 90.680115,24.871941 h 11.085025 q 0.028,0 0.028,0.02799 v 3.709004 q 0,0.02799 -0.028,0.02799 H 90.680115 q -0.02799,0 -0.02799,-0.02799 v -3.709004 q 0,-0.02799 0.02799,-0.02799 z m 3.583038,8.033842 h 3.83497 q 0.02799,0 0.02799,0.014 v 12.078756 q 0,0.02799 -0.02799,0.02799 h -3.83497 q -0.02799,0 -0.02799,-0.02799 v -12.07876 q 0,-0.014 0.02799,-0.014 z"
         style="stroke-width:0.716608"
         id="path2122" />
      <path
         d="m 104.39643,24.871941 h 11.08502 q 0.028,0 0.028,0.02799 v 3.709004 q 0,0.02799 -0.028,0.02799 h -11.08502 q -0.028,0 -0.028,-0.02799 v -3.709004 q 0,-0.02799 0.028,-0.02799 z m 3.58304,8.033842 h 3.83497 q 0.028,0 0.028,0.014 v 12.078756 q 0,0.02799 -0.028,0.02799 h -3.83497 q -0.028,0 -0.028,-0.02799 v -12.07876 q 0,-0.014 0.028,-0.014 z"
         style="stroke-width:0.716608"
         id="path2124" />
      <path
         d="m 118.11275,24.969915 h 11.02904 q 0.028,0 0.028,0.02799 v 3.639023 q 0,0.02799 -0.028,0.02799 h -11.02904 q -0.028,0 -0.028,-0.02799 v -3.639023 q 0,-0.02799 0.028,-0.02799 z m 3.63902,7.921872 h 3.737 q 0.028,0 0.028,0.02799 v 8.411741 h 3.62503 q 0.028,0 0.028,0.02799 v 3.639023 q 0,0.02799 -0.028,0.02799 h -11.02904 q -0.028,0 -0.028,-0.02799 v -3.639023 q 0,-0.02799 0.028,-0.02799 h 3.61103 v -8.411741 q 0,-0.02799 0.028,-0.02799 z"
         style="stroke-width:0.716608"
         id="path2126" />
      <path
         d="m 131.82906,24.927926 h 10.91707 q 0.028,0 0.028,0.02799 v 3.681012 q 0,0.02799 -0.028,0.02799 h -10.91707 q -0.028,0 -0.028,-0.02799 v -3.681012 q 0,-0.02799 0.028,-0.02799 z m 0,7.376019 h 10.91707 q 0.028,0 0.028,0.02799 v 3.625026 q 0,0.02799 -0.028,0.02799 h -7.13808 v 5.276583 h 7.13808 q 0.028,0.014 0.028,0.02799 v 3.709004 q 0,0.02799 -0.028,0.02799 h -10.91707 q -0.028,0 -0.028,-0.02799 V 32.331937 q 0,-0.02799 0.028,-0.02799 z"
         style="stroke-width:0.716608"
         id="path2128" />
      <path
         d="m 145.54538,24.899933 h 4.31084 q 3.58304,0 4.98266,0.839775 1.55359,0.85377 2.32338,2.841237 0.32191,1.035721 0.32191,2.029455 v 0.251932 q 0,3.219135 -2.75726,4.744725 -0.50386,0.265929 -1.04971,0.475873 v 0.014 l 4.74472,8.915605 -0.028,0.014 h -4.14289 q -0.056,-0.05598 -1.1197,-2.085439 -0.084,-0.125967 -3.41508,-6.424275 h -0.3639 v 8.481722 q 0,0.02799 -0.028,0.02799 h -3.77898 q -0.028,0 -0.028,-0.02799 v -12.20473 q 0,-0.02799 0.028,-0.02799 h 4.17088 q 2.26739,0 2.81324,-0.22394 0.67182,-0.209944 0.96574,-0.685816 0.26593,-0.489869 0.26593,-1.063714 v -0.167955 q 0,-1.091707 -1.04971,-1.679549 -0.65783,-0.293921 -1.79152,-0.293921 -2.32338,-0.014 -3.84897,-0.014 h -1.52559 q -0.028,0 -0.028,-0.02799 v -3.681011 q 0,-0.02799 0.028,-0.02799 z"
         style="stroke-width:0.716608"
         id="path2130" />
    </g>
    <g
       aria-label="NEXT-GEN
SOCIAL INTERFACE"
       id="text16"
       style="font-style:normal;font-weight:normal;font-size:10.5833px;line-height:1.25;font-family:sans-serif;fill-opacity:1;stroke:none;stroke-width:0.264583"
       stroke="#ffffff"
       fill="currentColor"
       >
      <path
         d="m 68.877355,56.732027 -1.085205,5.568652 -4.347022,-5.729883 h -0.186035 l -1.984375,10.194727 h 2.058789 l 1.079004,-5.574854 4.359424,5.748487 h 0.179834 l 1.984375,-10.207129 z"
         style="stroke-width:0.264583"
         fill="currentColor"
         id="path2133" />
      <path
         d="m 78.073692,58.735005 0.384473,-1.978173 h -5.785693 l -1.940967,9.996288 h 5.785693 l 0.390674,-1.996777 h -3.720703 l 0.396875,-2.06499 h 3.162597 l 0.390674,-2.002979 h -3.162597 l 0.378271,-1.953369 z"
         style="stroke-width:0.264583"
         fill="currentColor"
         id="path2135" />
      <path
         d="m 77.255138,66.75312 h 2.530078 l 2.468066,-3.410644 1.141016,3.410644 h 2.164209 l -1.835547,-5.02915 3.788916,-4.967138 h -2.536279 l -2.226221,3.081982 -1.035596,-3.081982 h -2.158008 l 1.736329,4.638476 z"
         style="stroke-width:0.264583"
         fill="currentColor"
         id="path2137" />
      <path
         d="m 94.568808,56.756832 h -6.653857 l -0.384473,1.990576 h 2.294434 l -1.556495,8.005712 h 2.071192 l 1.556494,-8.005712 h 2.288232 z"
         style="stroke-width:0.264583"
         fill="currentColor"
         id="path2139" />
      <path
         d="m 93.644834,62.759566 h 4.669482 l 0.341065,-1.754932 h -4.669483 z"
         style="stroke-width:0.264583"
         fill="currentColor"
         id="path2141" />
      <path
         d="m 104.53409,61.14106 -0.35967,1.85415 h 2.27583 c -0.21084,0.520899 -1.11001,1.934766 -2.70991,1.934766 -1.52549,0 -2.6541,-1.265039 -2.30684,-3.162598 0.34727,-1.909961 1.95337,-3.181201 3.39825,-3.181201 0.96118,0 1.56889,0.564307 2.127,1.382861 l 1.42627,-1.668115 c -0.66353,-0.95498 -1.81694,-1.730127 -3.03858,-1.74873 -3.09438,0 -5.494234,2.145605 -5.977925,5.215185 -0.471289,2.976563 1.141015,5.18418 4.092775,5.18418 2.81533,0 4.93613,-2.002979 5.48183,-4.967139 0.0248,-0.136425 0.0744,-0.421679 0.10542,-0.843359 z"
         style="stroke-width:0.264583"
         fill="currentColor"
         id="path2143" />
      <path
         d="m 116.66978,58.735005 0.38448,-1.978173 h -5.7857 l -1.94096,9.996288 h 5.78569 l 0.39067,-1.996777 h -3.7207 l 0.39688,-2.06499 h 3.16259 l 0.39068,-2.002979 h -3.1626 l 0.37827,-1.953369 z"
         style="stroke-width:0.264583"
         fill="currentColor"
         id="path2145" />
      <path
         d="m 124.19181,56.732027 -1.08521,5.568652 -4.34702,-5.729883 h -0.18603 l -1.98438,10.194727 h 2.05879 l 1.079,-5.574854 4.35943,5.748487 h 0.17983 l 1.98438,-10.207129 z"
         style="stroke-width:0.264583"
         fill="currentColor"
         id="path2147" />
      <path
         d="m 37.67926,82.826558 c 1.996777,0 3.404443,-1.190625 3.714501,-2.815332 0.248047,-1.277442 -0.285253,-2.226221 -1.85415,-3.175 -0.799951,-0.483692 -1.575098,-0.799951 -1.463476,-1.506885 0.07441,-0.496094 0.551904,-0.936377 1.153418,-0.936377 0.576708,0 1.141015,0.347266 1.308447,0.973584 l 1.624707,-1.11001 c -0.260449,-1.035595 -1.314649,-1.835547 -2.654102,-1.835547 -1.668115,0 -3.112988,1.00459 -3.410644,2.48667 -0.341065,1.699121 0.657324,2.523877 1.624707,3.125391 0.700732,0.434082 1.773535,1.023193 1.630908,1.847949 -0.111621,0.620117 -0.818555,0.923975 -1.395264,0.923975 -0.74414,0 -1.457275,-0.42168 -1.934765,-1.277442 l -1.630908,1.116211 c 0.440283,1.265039 1.630908,2.182813 3.286621,2.182813 z"
         style="stroke-width:0.264583"
         fill="currentColor"
         id="path2149" />
      <path
         d="m 46.509728,82.851362 c 2.80293,0.142627 5.283399,-2.021582 5.736084,-5.122168 0.427881,-2.926953 -1.172021,-5.109765 -3.857129,-5.246191 -2.815332,-0.142627 -5.289599,2.052588 -5.729882,5.165576 -0.415479,2.920752 1.196826,5.066358 3.850927,5.202783 z m 0.365869,-2.01538 c -1.519287,-0.03101 -2.455664,-1.401465 -2.151806,-3.181202 0.310058,-1.835546 1.779736,-3.199804 3.292822,-3.168798 1.488281,0.0248 2.480469,1.382861 2.164209,3.206005 -0.310059,1.779737 -1.742529,3.181202 -3.305225,3.143995 z"
         style="stroke-width:0.264583"
         fill="currentColor"
         id="path2151" />
      <path
         d="m 57.163341,82.820357 c 1.389063,0 2.672705,-0.551905 3.65249,-1.407666 L 59.935265,79.66396 c -0.750342,0.651123 -1.593701,1.141016 -2.492871,1.141016 -1.53169,0 -2.567285,-1.432471 -2.195215,-3.286621 0.347266,-1.730127 1.792139,-3.044776 3.317627,-3.044776 0.830957,0 1.469678,0.409278 2.151807,1.42627 l 1.525488,-1.333252 c -0.651123,-1.258838 -1.878955,-2.027783 -3.237012,-2.120801 -2.22622,-0.142627 -5.246191,1.575098 -5.835302,5.066357 -0.514698,3.044776 1.178222,5.308204 3.993554,5.308204 z"
         style="stroke-width:0.264583"
         fill="currentColor"
         id="path2153" />
      <path
         d="m 61.814221,82.62812 h 2.06499 l 1.940967,-9.996289 h -2.064991 z"
         style="stroke-width:0.264583"
         fill="currentColor"
         id="path2155" />
      <path
         d="M 72.046154,82.62812 H 74.14215 L 71.667882,72.383784 H 71.33922 L 64.890001,82.62812 h 2.399854 l 0.812353,-1.395263 h 3.640088 z m -2.939356,-3.106787 1.643311,-2.815332 0.613916,2.815332 z"
         style="stroke-width:0.264583"
         fill="currentColor"
         id="path2157" />
      <path
         d="M 77.621007,80.631343 79.1713,72.631831 h -2.071192 l -1.940966,9.996289 h 5.866308 l 0.390674,-1.996777 z"
         style="stroke-width:0.264583"
         fill="currentColor"
         id="path2159" />
      <path
         d="m 85.874767,82.62812 h 2.064991 l 1.940966,-9.996289 h -2.06499 z"
         style="stroke-width:0.264583"
         fill="currentColor"
         id="path2161" />
      <path
         d="m 97.291122,72.607027 -1.085205,5.568652 -4.347021,-5.729883 h -0.186035 l -1.984375,10.194727 h 2.058789 l 1.079004,-5.574854 4.359424,5.748486 h 0.179834 l 1.984374,-10.207128 z"
         style="stroke-width:0.264583"
         fill="currentColor"
         id="path2163" />
      <path
         d="m 107.13238,72.631831 h -6.65385 l -0.38448,1.990576 h 2.29444 l -1.5565,8.005713 h 2.0712 l 1.55649,-8.005713 h 2.28823 z"
         style="stroke-width:0.264583"
         fill="currentColor"
         id="path2165" />
      <path
         d="m 113.68082,74.610005 0.38447,-1.978174 h -5.78569 l -1.94097,9.996289 h 5.7857 l 0.39067,-1.996777 h -3.7207 l 0.39687,-2.06499 h 3.1626 l 0.39068,-2.002979 h -3.1626 l 0.37827,-1.953369 z"
         style="stroke-width:0.264583"
         fill="currentColor"
         id="path2167" />
      <path
         d="m 121.32066,75.868843 c 0.33486,-2.133203 -1.25264,-3.237012 -2.82153,-3.237012 h -2.95176 l -1.93477,9.996289 h 2.06499 l 0.90538,-4.675683 2.1146,4.675683 h 2.28823 l -1.95957,-3.981152 c 1.22163,-0.37207 2.08359,-1.444873 2.29443,-2.778125 z m -2.03398,0.0186 c -0.10542,0.731739 -0.76275,1.258838 -1.62471,1.252637 l -0.92397,-0.0062 0.48989,-2.511475 h 0.92397 c 0.70694,0 1.24024,0.520899 1.13482,1.265038 z"
         style="stroke-width:0.264583"
         fill="currentColor"
         id="path2169" />
      <path
         d="m 129.28296,74.610005 0.39068,-2.002978 h -5.7857 l -1.95336,10.033496 h 2.06499 l 0.78134,-4.012159 h 3.1626 l 0.39068,-2.002978 h -3.1688 l 0.39067,-2.015381 z"
         style="stroke-width:0.264583"
         fill="currentColor"
         id="path2171" />
      <path
         d="m 134.10748,82.62812 h 2.096 l -2.47427,-10.244336 h -0.32866 l -6.44922,10.244336 h 2.39985 l 0.81236,-1.395263 h 3.64008 z m -2.93935,-3.106787 1.64331,-2.815332 0.61391,2.815332 z"
         style="stroke-width:0.264583"
         fill="currentColor"
         id="path2173" />
      <path
         d="m 140.87916,82.820357 c 1.38906,0 2.6727,-0.551905 3.65249,-1.407666 l -0.88057,-1.748731 c -0.75034,0.651123 -1.5937,1.141016 -2.49287,1.141016 -1.53169,0 -2.56729,-1.432471 -2.19522,-3.286621 0.34727,-1.730127 1.79214,-3.044776 3.31763,-3.044776 0.83096,0 1.46968,0.409278 2.15181,1.42627 l 1.52549,-1.333252 c -0.65113,-1.258838 -1.87896,-2.027783 -3.23702,-2.120801 -2.22622,-0.142627 -5.24619,1.575098 -5.8353,5.066357 -0.5147,3.044776 1.17822,5.308204 3.99356,5.308204 z"
         style="stroke-width:0.264583"
         fill="currentColor"
         id="path2175" />
      <path
         d="m 152.87223,74.610005 0.38447,-1.978174 h -5.78569 l -1.94097,9.996289 h 5.78569 l 0.39068,-1.996777 h -3.72071 l 0.39688,-2.06499 h 3.1626 l 0.39067,-2.002979 h -3.1626 l 0.37828,-1.953369 z"
         style="stroke-width:0.264583"
         fill="currentColor"
         id="path2177" />
    </g>
    <rect
       style="fill:url(#linearGradient973);fill-opacity:1;fill-rule:nonzero;stroke:none;stroke-width:1.26326"
       id="rect927"
       width="116.39867"
       height="2.527369"
       x="121.05216"
       y="128.89581"
       transform="matrix(1,0,-0.74806935,0.66362056,0,0)" />
    <rect
       style="fill:url(#linearGradient981);fill-opacity:1;fill-rule:nonzero;stroke:none;stroke-width:1.10195"
       id="rect927-1"
       width="99.910889"
       height="2.2404871"
       x="121.3334"
       y="91.187828"
       transform="matrix(1,0,-0.66302928,0.74859346,0,0)" />
  </g>
</svg>
